PathFileType	4	(X/Y/Z)	G:/Ayumi_testdata/vicon/updated_static_jc/static_00.trc	
DataRate	CameraRate	NumFrames	NumMarkers	Units	OrigDataRate	OrigDataStartFrame	OrigNumFrames	
200.00	200.00	4	66	mm	200.00	37	295	
Frame#	Time	LASI			RASI			RSACR			LSACR			USACR			LBAR			RBAR			RHEE			RMT1			RMT5			RMT2			LHEE			LMT1			LMT5			LMT2			LMMAL			LMFC			LLFC			LLMAL			LTIB4			LTIB2			LTIB3			LTIB1			RMMAL			RMFC			RLFC			RLMAL			RTIB1			RTIB2			RTIB3			RTHI1			RTHI4			RTHI3			RTHI2			LTHI1			LTHI4			LTHI3			LTHI2			FHD			LBHD			RBHD			C7			T10			CLAV			LSHO			RSHO			LRAD			LUL			LRFIN			RRAD			RUL			RUFIN			RLEP			RMEP			LLEP			LMEP			LDUPA			LMUPA			LUUPA			RDUPA			RUUPA			RMUPA			RKJC			LKJC			LAKJC			RAKJC			
		X1	Y1	Z1	X2	Y2	Z2	X3	Y3	Z3	X4	Y4	Z4	X5	Y5	Z5	X6	Y6	Z6	X7	Y7	Z7	X8	Y8	Z8	X9	Y9	Z9	X10	Y10	Z10	X11	Y11	Z11	X12	Y12	Z12	X13	Y13	Z13	X14	Y14	Z14	X15	Y15	Z15	X16	Y16	Z16	X17	Y17	Z17	X18	Y18	Z18	X19	Y19	Z19	X20	Y20	Z20	X21	Y21	Z21	X22	Y22	Z22	X23	Y23	Z23	X24	Y24	Z24	X25	Y25	Z25	X26	Y26	Z26	X27	Y27	Z27	X28	Y28	Z28	X29	Y29	Z29	X30	Y30	Z30	X31	Y31	Z31	X32	Y32	Z32	X33	Y33	Z33	X34	Y34	Z34	X35	Y35	Z35	X36	Y36	Z36	X37	Y37	Z37	X38	Y38	Z38	X39	Y39	Z39	X40	Y40	Z40	X41	Y41	Z41	X42	Y42	Z42	X43	Y43	Z43	X44	Y44	Z44	X45	Y45	Z45	X46	Y46	Z46	X47	Y47	Z47	X48	Y48	Z48	X49	Y49	Z49	X50	Y50	Z50	X51	Y51	Z51	X52	Y52	Z52	X53	Y53	Z53	X54	Y54	Z54	X55	Y55	Z55	X56	Y56	Z56	X57	Y57	Z57	X58	Y58	Z58	X59	Y59	Z59	X60	Y60	Z60	X61	Y61	Z61	X62	Y62	Z62	X63	Y63	Z63	X64	Y64	Z64	X65	Y65	Z65	X66	Y66	Z66	

37	0.180	134.64917	762.31812	918.14636	130.07550	984.60132	918.65942	309.94937	912.64349	950.43915	309.21564	852.74683	953.68713	298.30197	882.59583	966.81305	1270.80005	-346.50317	26.32112	1226.40930	1876.95154	26.30410	323.06000	1019.65790	39.81253	128.15041	1043.32190	43.44193	165.06294	1113.66248	34.81148	140.17567	1079.96985	42.68904	326.26825	745.13037	45.80299	134.38864	736.45593	46.33447	170.01202	662.78387	33.38172	143.17435	698.03528	45.91689	276.70270	778.66705	72.94312	233.45786	829.12006	456.92792	219.99673	721.44336	454.04330	278.81915	700.94720	69.13316	290.60699	691.52838	209.60974	314.31689	691.52728	270.87488	263.79282	684.47900	268.18686	301.73358	687.54431	314.20764	275.18674	994.11780	68.34931	235.88417	935.43427	446.59454	221.11317	1041.32971	461.40024	284.69791	1068.61353	72.22664	257.42838	1082.74951	319.32214	307.88165	1077.24316	313.99982	276.83728	1081.41370	256.17044	242.38824	1060.13135	783.96954	243.27409	1064.84888	635.13574	192.00098	1066.70142	637.13495	219.71083	1070.21399	697.25897	239.58286	698.96832	779.03278	237.42278	695.42572	646.64362	186.82716	693.13367	637.61371	201.34384	689.42395	701.32733	130.62057	775.23389	1593.13379	241.39215	786.25110	1575.98010	252.93130	909.73364	1571.43347	262.92618	857.67291	1391.47034	286.29343	877.68744	1007.77051	140.34314	872.68744	1328.73914	244.14108	724.71484	1380.91516	236.38322	986.67334	1397.15222	163.89812	222.56633	1357.41907	204.51688	222.07530	1353.07178	150.40851	130.65871	1336.88086	240.96516	1500.54211	1389.57312	287.86200	1499.66565	1383.48083	235.24310	1590.70313	1391.84216	293.20935	1271.20874	1330.28735	255.01633	1271.74622	1296.66003	220.07152	453.85382	1299.94897	179.21289	466.72369	1277.53491	236.31441	505.77441	1353.77454	200.44823	536.35913	1371.36890	237.59990	584.95404	1362.37146	266.03400	1205.64709	1382.73621	256.71820	1143.93579	1384.40027	215.80127	1212.21533	1385.66626	228.49867	988.38199	453.99739	226.72729	775.28171	455.48561	277.76093	739.80713	71.03814	279.94232	1031.36566	70.28798 
38	0.185	134.63448	762.32208	918.15125	130.05675	984.60052	918.65527	309.93066	912.65118	950.43939	309.19437	852.75659	953.68524	298.27463	882.60718	966.80786	1270.79297	-346.49567	26.32405	1226.43164	1876.97119	26.29347	323.05069	1019.64935	39.82021	128.14517	1043.31799	43.44781	165.06099	1113.66809	34.81753	140.17480	1079.96509	42.68556	326.26822	745.14697	45.80358	134.39012	736.45660	46.33842	169.99382	662.78088	33.40155	143.17566	698.03528	45.91778	276.71509	778.65698	72.94865	233.44557	829.12634	456.92734	219.99431	721.45062	454.04456	278.81555	700.94690	69.13187	290.60056	691.52960	209.61858	314.25677	691.34668	271.19907	263.78360	684.48889	268.18430	301.73761	687.54968	314.21393	275.19037	994.11292	68.34991	235.87344	935.44049	446.59082	221.10585	1041.32764	461.39700	284.69644	1068.62573	72.22926	257.42911	1082.75854	319.32935	307.88211	1077.23669	314.00476	276.83752	1081.40845	256.18185	242.36722	1060.13965	783.96973	243.27173	1064.85510	635.15521	191.99467	1066.70581	637.12238	219.81255	1070.15100	697.12640	239.58678	698.97205	779.04059	237.40981	695.43195	646.66284	186.79247	693.14136	637.60229	201.33348	689.43390	701.32031	130.59036	775.22192	1593.10352	241.33907	786.24127	1575.98682	252.88466	909.72369	1571.44556	262.91415	857.66748	1391.47522	286.27185	877.70020	1007.77008	140.32388	872.68573	1328.74316	244.12663	724.70648	1380.94128	236.36208	986.66626	1397.15344	163.88116	222.50574	1357.59399	204.49081	222.08411	1353.08850	150.37944	130.65367	1336.92444	240.91777	1500.54309	1389.61597	287.82718	1499.65015	1383.53564	235.19931	1590.70264	1391.89282	293.18405	1271.21191	1330.31787	254.99710	1271.75073	1296.68823	220.06906	453.85574	1299.95752	179.20143	466.72992	1277.54919	236.30298	505.76685	1353.78247	200.44333	536.36102	1371.36951	237.57790	584.94781	1362.40527	266.00647	1205.65564	1382.75195	256.69653	1143.93188	1384.40869	215.81119	1212.15271	1385.59253	228.48965	988.38406	453.99391	226.71994	775.28848	455.48595	277.76532	739.80194	71.04026	279.94341	1031.36932	70.28959 
39	0.190	134.60921	762.32605	918.15424	130.04750	984.60834	918.65112	309.90637	912.64801	950.44781	309.17688	852.75537	953.69165	298.24509	882.60828	966.80939	1270.79736	-346.50711	26.33419	1226.42493	1876.96631	26.29986	323.05740	1019.66266	39.81792	128.15204	1043.33008	43.45920	165.05850	1113.67578	34.82122	140.17445	1079.96777	42.69048	326.26843	745.14252	45.80767	134.39294	736.45526	46.34485	169.98660	662.77820	33.39842	143.17674	698.03491	45.92169	276.72116	778.65796	72.95409	233.42528	829.13824	456.93204	219.98402	721.45941	454.05438	278.81274	700.95135	69.14178	290.60760	691.52893	209.62302	314.25177	691.34644	271.19165	263.79556	684.48566	268.20074	301.92459	687.35486	314.29401	275.18704	994.10223	68.35602	235.86800	935.43665	446.59393	221.10654	1041.33020	461.39163	284.69968	1068.61914	72.23177	257.43073	1082.74548	319.33261	307.87323	1077.23462	314.01492	276.85703	1081.40991	256.17117	242.35335	1060.14868	783.97601	243.28384	1064.83630	635.14740	191.97318	1066.68286	637.11664	219.81799	1070.15149	697.12830	239.56017	698.97742	779.03821	237.40039	695.42548	646.66119	186.77724	693.13300	637.60028	201.31029	689.42664	701.32288	130.53123	775.21710	1593.10181	241.26292	786.23456	1575.98486	252.83281	909.71808	1571.46338	262.89258	857.67542	1391.48096	286.24515	877.71332	1007.77106	140.32379	872.69733	1328.74829	244.12343	724.70911	1380.95447	236.34683	986.66119	1397.15112	163.85808	222.52432	1357.63037	204.46181	222.09828	1353.11755	150.36362	130.67175	1336.96863	240.87007	1500.53723	1389.66626	287.78244	1499.64160	1383.58264	235.16493	1590.70044	1391.94592	293.16595	1271.19702	1330.33911	254.96547	1271.76501	1296.71667	220.05205	453.86188	1299.97314	179.18744	466.72675	1277.56555	236.29419	505.77063	1353.78088	200.44113	536.37048	1371.37671	237.56664	584.95233	1362.41650	265.98071	1205.63403	1382.77234	256.67081	1143.91675	1384.41870	215.77798	1212.14929	1385.61243	228.48727	988.38342	453.99278	226.70465	775.29883	455.49321	277.76695	739.80466	71.04794	279.94336	1031.36069	70.29389 
40	0.195	134.58736	762.33002	918.14795	130.02452	984.61542	918.65289	309.88138	912.65564	950.43866	309.14676	852.75574	953.68848	298.23184	882.60712	966.81689	1270.80237	-346.49155	26.33607	1226.43469	1876.97205	26.29257	323.05179	1019.67035	39.82024	128.14906	1043.32788	43.45961	165.04774	1113.67004	34.81755	140.17967	1079.96289	42.68580	326.27426	745.15234	45.80136	134.38635	736.45477	46.34282	169.97401	662.77612	33.41708	143.17088	698.02948	45.92208	276.71539	778.65424	72.95444	233.41350	829.14038	456.93787	219.96320	721.46448	454.04410	278.82495	700.95074	69.14484	290.60083	691.52728	209.62335	314.29172	691.53906	270.94250	263.78268	684.49396	268.19702	301.91757	687.36542	314.29242	275.18924	994.10443	68.35515	235.85040	935.43298	446.59177	221.08607	1041.33508	461.40253	284.70007	1068.60974	72.23191	257.41809	1082.75793	319.32687	307.87405	1077.23401	314.01465	276.84970	1081.41833	256.17511	242.33557	1060.15503	783.97559	243.25723	1064.86450	635.15271	191.96957	1066.68286	637.11713	219.77629	1070.17175	697.13055	239.54089	698.97437	779.04108	237.40770	695.43915	646.66962	186.75552	693.12762	637.60498	201.31004	689.44727	701.31897	130.48695	775.20831	1593.09363	241.21382	786.23413	1575.99280	252.78291	909.70734	1571.47388	262.86984	857.66925	1391.47937	286.22488	877.71802	1007.77209	140.31882	872.68964	1328.73865	244.13609	724.70319	1380.97986	236.32150	986.66132	1397.15222	163.83794	222.53632	1357.67505	204.47002	222.09337	1353.16504	150.34781	130.66745	1337.02722	240.83212	1500.53760	1389.71716	287.73904	1499.62476	1383.63257	235.12524	1590.69580	1391.99060	293.15451	1271.21057	1330.37231	254.94038	1271.76648	1296.73657	220.04143	453.85657	1299.97827	179.18478	466.72598	1277.57935	236.28464	505.77908	1353.77869	200.40388	536.37817	1371.39233	237.62932	584.91870	1362.38794	265.96036	1205.63416	1382.78210	256.65640	1143.91711	1384.42175	215.71832	1212.20581	1385.72412	228.46824	988.38403	453.99715	226.68835	775.30243	455.49098	277.77017	739.80249	71.04964	279.94466	1031.35709	70.29353 
